<?xml version="1.0" encoding="UTF-8"?>
<svg width="154px" height="155px" viewBox="0 0 154 155" version="1.1" xmlns="http://www.w3.org/2000/svg" xmlns:xlink="http://www.w3.org/1999/xlink">
    <!-- Generator: Sketch 51.1 (57501) - http://www.bohemiancoding.com/sketch -->
    <title>Group 4 Copy 2</title>
    <desc>Created with Sketch.</desc>
    <defs></defs>
    <g id="Font-exploration" stroke="none" stroke-width="1" fill="none" fill-rule="evenodd">
        <g id="Group-4-Copy-2" transform="translate(-7.000000, -4.000000)">
            <g id="Group-5-Copy-13" transform="translate(3.000000, 0.000000)">
                <polygon id="Path-4" fill="#DDDDDD" points="21.0901503 153.92168 21.0901503 69.763708 81.7963323 22.5175778 144.525697 69.763708 144.525697 153.92168"></polygon>
                <circle id="Oval" fill="#FFFFFF" cx="52" cy="89" r="9"></circle>
                <circle id="Oval" fill="#FFFFFF" cx="112" cy="89" r="9"></circle>
                <path d="M55.6193874,146.827574 L25.1773295,146.827574 L25.1773295,74.6892459 L82.0000203,30.7577049 L138.82504,74.6892459 L138.82504,146.827574 L108.380653,146.827574 L55.6193874,146.827574 Z M102.293173,159 L144.91252,159 L151,159 L151,71.7724262 C151,69.9264262 150.110399,68.0874098 148.652571,66.9537377 L85.7423999,18.2686885 C84.6152613,17.3957377 84.028404,17.1117377 82.0000203,17 C80.7471265,17.0488852 79.2473801,17.5004918 78.2599694,18.2686885 L15.3474697,66.9537377 C13.8896417,68.0874098 12.9930541,69.9264262 13.0000405,71.7724262 L13,159 L19.0875206,159 L61.7068675,159 L102.293173,159 Z" id="Fill-18" fill="#143C81"></path>
                <g id="Group-3" transform="translate(6.000000, 94.000000)" fill="#143C81">
                    <path d="M144,36.9346695 L144,0 C145.354244,3.98587577 151.16,0.0472065942 151.16,10.4356441 L151.16,17.6356441 C151.16,20.9956441 150.8,27.8356441 149.84,30.8356441 C148.873311,33.9114733 145.654068,34.7347489 144,36.9346695 Z" id="Combined-Shape"></path>
                    <path d="M2.27373675e-13,36.9346695 L2.27373675e-13,0 C1.35424437,3.98587577 7.16,0.0472065942 7.16,10.4356441 L7.16,17.6356441 C7.16,20.9956441 6.8,27.8356441 5.84,30.8356441 C4.87331081,33.9114733 1.65406793,34.7347489 2.23321361e-13,36.9346695 Z" id="Combined-Shape-Copy-2" transform="translate(3.580000, 18.467335) scale(-1, 1) translate(-3.580000, -18.467335) "></path>
                </g>
                <path d="M42.4897959,24.7339009 C42.4897959,29.0035052 39.0230321,32.4653465 34.7473567,32.4653465 C30.4667638,32.4653465 27,29.0035052 27,24.7339009 C27,20.4618413 30.4667638,17 34.7473567,17 C39.0230321,17 42.4897959,20.4618413 42.4897959,24.7339009" id="Path" fill="#143C81"></path>
                <g id="Group-5" fill="#FFD54C" fill-rule="nonzero">
                    <polygon id="Shape" transform="translate(56.000000, 17.000000) rotate(-337.000000) translate(-56.000000, -17.000000) " points="57.7777778 3 48 20.5 54.2222222 20.5 54.2222222 31 64 13.5 57.7777778 13.5"></polygon>
                    <polygon id="Shape" transform="translate(13.000000, 17.000000) scale(-1, 1) rotate(-337.000000) translate(-13.000000, -17.000000) " points="14.7777778 3 5 20.5 11.2222222 20.5 11.2222222 31 21 13.5 14.7777778 13.5"></polygon>
                </g>
                <polygon id="Path" fill="#143C81" points="33 59.3366337 35.8163265 59.3366337 35.8163265 27 33 27"></polygon>
                <path d="M52,108 C52,124.493644 65.5031116,138 82.0013241,138 C98.4968884,138 112,124.493644 112,108 C105.115714,112.40721 95.1315459,114.610816 82.0474967,114.610816 C68.9634475,114.610816 58.9476153,112.40721 52,108 Z" id="Fill-25" fill="#143C81"></path>
                <path d="M57,114 C57,120.873691 69.5048709,124.309866 82.0073056,124.308527 C94.5048699,124.307189 107,120.871013 107,114 C101.263095,117.672675 92.9429549,119.509013 82.0395806,119.509013 C71.1362063,119.509013 62.7896794,117.672675 57,114 Z" id="Fill-25" fill="#FFFFFF"></path>
                <g id="Group" transform="translate(42.000000, 79.000000)" fill="#143C81">
                    <path d="M62.5440747,10.6551963 C62.8173561,10.4093538 63.2557638,10.25 63.75,10.25 C64.3650777,10.25 64.8936889,10.4968046 65.1251665,10.849969 C65.1272032,6.71351299 66.8075877,4.86753766 70.5343567,4.82780098 C70.2166114,4.57656677 70,4.07622762 70,3.5 C70,2.97319725 70.1810462,2.5098229 70.4548997,2.24223521 C65.3657954,2.31865206 62.6111605,5.27782648 62.5440747,10.6551963 Z M80,10.0015876 C80,15.5230989 75.5238095,20 70.0031746,20 C64.4761905,20 60,15.5230989 60,10.0015876 C60,4.4769011 64.4761905,0 70.0031746,0 C75.5238095,0 80,4.4769011 80,10.0015876 Z" id="Combined-Shape"></path>
                    <path d="M2.54407475,10.6551963 C2.81735614,10.4093538 3.25576376,10.25 3.75,10.25 C4.36507769,10.25 4.89368892,10.4968046 5.12516654,10.849969 C5.12720319,6.71351299 6.80758765,4.86753766 10.5343567,4.82780098 C10.2166114,4.57656677 10,4.07622762 10,3.5 C10,2.97319725 10.1810462,2.5098229 10.4548997,2.24223521 C5.36579536,2.31865206 2.61116053,5.27782648 2.54407475,10.6551963 Z M20,10.0015876 C20,15.5230989 15.5238095,20 10.0031746,20 C4.47619048,20 0,15.5230989 0,10.0015876 C0,4.4769011 4.47619048,0 10.0031746,0 C15.5238095,0 20,4.4769011 20,10.0015876 Z" id="Combined-Shape-Copy"></path>
                </g>
            </g>
            <path d="M22,74 C22,72.6666667 23,71.3333333 25,70 L83,25 C83.6666667,24.3333333 84.3333333,24 85,24" id="Path-14-Copy" stroke="#FFFFFF" stroke-width="3"></path>
            <path d="M15,105 C15,103 15.6666667,102 17,102" id="Path-15-Copy" stroke="#FFFFFF" stroke-width="3"></path>
            <path d="M35,26 C35,23.3333333 36.3333333,22 39,22" id="Path-16-Copy" stroke="#FFFFFF" stroke-width="3"></path>
            <path d="M35.5,83.5 L35.5,146.698101" id="Line-Copy-2" stroke="#979797" stroke-width="3" stroke-linecap="square" stroke-dasharray="2,6"></path>
            <path d="M133.5,83.5 L133.5,146.698101" id="Line-Copy-3" stroke="#979797" stroke-width="3" stroke-linecap="square" stroke-dasharray="2,6"></path>
        </g>
    </g>
</svg>